<svg xmlns="http://www.w3.org/2000/svg" width="81.208" height="80.78" viewBox="0 0 81.208 80.78">
  <g id="Group_30" data-name="Group 30" transform="translate(-172.509 -414.286)">
    <g id="Group_26" data-name="Group 26" transform="translate(172.517 414.294)">
      <path id="Path_96" data-name="Path 96" d="M199.168,423.444a17.5,17.5,0,1,0,17.5,17.5A17.522,17.522,0,0,0,199.168,423.444Zm0,29.09a11.588,11.588,0,1,1,11.588-11.588A11.589,11.589,0,0,1,199.168,452.534Z" transform="translate(-171.721 -413.498)" fill="#a0a0a0"/>
      <path id="Path_97" data-name="Path 97" d="M224.7,441.74c0-.613-.047-1.213-.09-1.813a19.333,19.333,0,0,0,1.734-1.468c.447-.434.748-.724.748-.724a23.341,23.341,0,0,0-.689-3.3,17.59,17.59,0,0,0-.714-2.206c-.221-.594-.366-.991-.366-.991l-2.506,1.041c-.234-.564-.5-1.1-.773-1.643a19.861,19.861,0,0,0,1.04-2.024c.247-.574.412-.955.412-.955a25.169,25.169,0,0,0-1.9-2.784,19.02,19.02,0,0,0-1.507-1.762c-.425-.466-.711-.778-.711-.778l-1.917,1.918c-.429-.427-.881-.824-1.343-1.219a20.5,20.5,0,0,0,.185-2.26c.011-.626.016-1.047.016-1.047s-.339-.25-.843-.63c-.522-.356-1.258-.777-1.973-1.22s-1.507-.759-2.066-1.051-.961-.439-.961-.439l-1.039,2.507c-.554-.232-1.127-.435-1.7-.626a20.737,20.737,0,0,0-.7-2.149c-.232-.584-.386-.975-.386-.975s-.408-.105-1.021-.259c-.62-.12-1.461-.235-2.292-.366a22.858,22.858,0,0,0-2.31-.174l-1.053-.049v2.713c-.613,0-1.212.047-1.813.092a19.236,19.236,0,0,0-1.468-1.738l-.724-.747a23.2,23.2,0,0,0-3.3.689,17.713,17.713,0,0,0-2.205.716l-.991.364,1.038,2.507c-.561.233-1.1.5-1.641.773a19.668,19.668,0,0,0-2.023-1.04l-.956-.412a25.041,25.041,0,0,0-2.782,1.9,19.342,19.342,0,0,0-1.763,1.505l-.778.712,1.919,1.918c-.428.429-.825.881-1.221,1.343a20.493,20.493,0,0,0-2.26-.185l-1.046-.017s-.25.338-.63.844c-.357.521-.777,1.256-1.221,1.973s-.76,1.509-1.051,2.067-.439.96-.439.96l2.505,1.041c-.23.553-.434,1.124-.624,1.7a20.44,20.44,0,0,0-2.151.7l-.974.384s-.1.409-.259,1.022c-.12.621-.234,1.46-.365,2.292a22.233,22.233,0,0,0-.174,2.31c-.029.631-.05,1.052-.05,1.052h2.714c0,.613.047,1.213.091,1.814a19.157,19.157,0,0,0-1.735,1.467c-.448.435-.749.725-.749.725a23.614,23.614,0,0,0,.69,3.3,17.567,17.567,0,0,0,.715,2.206c.218.594.365.991.365.991l2.505-1.04c.234.563.5,1.1.774,1.643a19.5,19.5,0,0,0-1.039,2.023c-.249.575-.412.955-.412.955a24.818,24.818,0,0,0,1.9,2.783,18.99,18.99,0,0,0,1.505,1.762l.711.779,1.919-1.919c.427.427.881.825,1.342,1.221a20.748,20.748,0,0,0-.185,2.26l-.016,1.046s.338.251.845.63c.521.357,1.256.777,1.972,1.221s1.507.76,2.067,1.051.96.439.96.439l1.038-2.506c.556.23,1.127.434,1.7.625a20.439,20.439,0,0,0,.7,2.151c.233.584.386.974.386.974s.408.1,1.023.259c.62.118,1.459.234,2.292.365a22.834,22.834,0,0,0,2.31.174l1.051.049v-2.713c.613,0,1.214-.047,1.813-.091a20.105,20.105,0,0,0,1.469,1.739c.435.446.724.746.724.746a23.582,23.582,0,0,0,3.3-.69,17.582,17.582,0,0,0,2.207-.715l.99-.365-1.039-2.506c.562-.233,1.1-.5,1.642-.772a19.679,19.679,0,0,0,2.023,1.038l.956.412a25.014,25.014,0,0,0,2.783-1.9,19.677,19.677,0,0,0,1.762-1.5c.465-.429.777-.713.777-.713l-1.917-1.919c.427-.426.824-.88,1.219-1.343a20.455,20.455,0,0,0,2.26.185l1.047.017s.25-.339.63-.844c.356-.52.777-1.256,1.219-1.972s.759-1.507,1.051-2.067.439-.96.439-.96l-2.506-1.04c.232-.554.435-1.126.625-1.7a20.779,20.779,0,0,0,2.151-.7c.583-.231.974-.385.974-.385s.1-.408.258-1.023c.121-.62.235-1.46.367-2.292a22.475,22.475,0,0,0,.173-2.31c.029-.631.05-1.052.05-1.052H224.7Zm-24.735,19.925a19.925,19.925,0,1,1,19.926-19.925A19.947,19.947,0,0,1,199.962,461.666Z" transform="translate(-172.516 -414.293)" fill="#a0a0a0"/>
    </g>
    <g id="Group_27" data-name="Group 27" transform="translate(172.509 414.291)">
      <path id="Path_98" data-name="Path 98" d="M199.169,423.442a17.5,17.5,0,1,0,17.5,17.506A17.523,17.523,0,0,0,199.169,423.442Zm0,29.092a11.59,11.59,0,1,1,11.584-11.585A11.595,11.595,0,0,1,199.169,452.534Z" transform="translate(-171.714 -413.496)" fill="#a0a0a0"/>
      <path id="Path_99" data-name="Path 99" d="M224.7,441.744c0-.617-.049-1.212-.086-1.817a19.587,19.587,0,0,0,1.732-1.467l.751-.726a25.041,25.041,0,0,0-.689-3.294,18.141,18.141,0,0,0-.717-2.205c-.217-.606-.374-1-.374-1l-2.5,1.044c-.232-.569-.51-1.1-.777-1.65a22.2,22.2,0,0,0,1.043-2.023c.243-.568.412-.958.412-.958a25.639,25.639,0,0,0-1.9-2.787,19.749,19.749,0,0,0-1.516-1.757c-.423-.46-.7-.775-.7-.775l-1.926,1.915c-.425-.425-.873-.824-1.343-1.212a22.676,22.676,0,0,0,.193-2.265c.012-.63.012-1.042.012-1.042s-.339-.254-.848-.63-1.248-.777-1.964-1.223-1.515-.764-2.072-1.055-.958-.437-.958-.437l-1.042,2.51c-.558-.23-1.127-.437-1.709-.63a20.29,20.29,0,0,0-.69-2.144c-.242-.582-.388-.982-.388-.982s-.412-.1-1.028-.254c-.618-.12-1.455-.229-2.29-.363a21.86,21.86,0,0,0-2.3-.181c-.642-.025-1.055-.048-1.055-.048V417c-.616,0-1.211.049-1.817.1a20.249,20.249,0,0,0-1.466-1.742c-.436-.437-.728-.741-.728-.741a22.785,22.785,0,0,0-3.3.692,17.044,17.044,0,0,0-2.205.713c-.592.218-.992.363-.992.363l1.041,2.51c-.568.23-1.1.5-1.648.776a17.044,17.044,0,0,0-2.023-1.042c-.57-.255-.957-.413-.957-.413a23.335,23.335,0,0,0-2.775,1.9,20.66,20.66,0,0,0-1.769,1.5c-.46.425-.776.715-.776.715l1.914,1.915c-.424.424-.824.885-1.211,1.343a19.314,19.314,0,0,0-2.266-.18c-.629-.012-1.041-.024-1.041-.024s-.254.338-.631.848-.775,1.261-1.223,1.974-.763,1.5-1.054,2.072-.436.958-.436.958l2.508,1.044c-.229.544-.436,1.114-.63,1.7a21.225,21.225,0,0,0-2.145.7c-.58.23-.969.387-.969.387s-.109.4-.265,1.018c-.123.618-.232,1.455-.363,2.291a21.714,21.714,0,0,0-.172,2.314c-.035.629-.06,1.053-.06,1.053h2.715c0,.608.047,1.212.1,1.806a21.078,21.078,0,0,0-1.734,1.466c-.447.436-.75.728-.75.728a22.929,22.929,0,0,0,.69,3.307,17.259,17.259,0,0,0,.715,2.205c.219.593.364.992.364.992l2.508-1.041c.229.557.5,1.1.777,1.636a19.227,19.227,0,0,0-1.044,2.023c-.253.583-.412.958-.412.958a25.915,25.915,0,0,0,1.9,2.787,20.655,20.655,0,0,0,1.5,1.756c.425.475.715.777.715.777l1.914-1.915c.436.424.886.824,1.346,1.223a21.283,21.283,0,0,0-.183,2.254c-.012.629-.012,1.054-.012,1.054s.34.242.837.63c.52.351,1.261.775,1.975,1.211s1.515.763,2.072,1.054.958.436.958.436l1.041-2.5c.546.23,1.128.424,1.7.617a21.965,21.965,0,0,0,.7,2.156c.23.583.388.971.388.971s.412.109,1.018.253c.616.122,1.466.243,2.289.377.838.145,1.685.109,2.315.167.628.025,1.053.049,1.053.049v-2.714c.608,0,1.212-.049,1.806-.084a22.731,22.731,0,0,0,1.477,1.732c.424.448.715.74.715.74a24.235,24.235,0,0,0,3.309-.679,22.141,22.141,0,0,0,2.2-.714c.595-.232.993-.377.993-.377l-1.042-2.5c.559-.243,1.1-.51,1.637-.775.726.412,1.467.8,2.023,1.04.581.243.957.412.957.412a26.594,26.594,0,0,0,2.787-1.913,18.7,18.7,0,0,0,1.757-1.5c.472-.425.787-.714.787-.714l-1.926-1.915c.436-.426.824-.886,1.224-1.346.837.12,1.636.169,2.254.195.63,0,1.054.013,1.054.013s.254-.34.628-.849c.352-.521.777-1.261,1.225-1.975s.751-1.5,1.042-2.06.437-.958.437-.958l-2.5-1.041q.344-.836.617-1.708a20.671,20.671,0,0,0,2.156-.7c.581-.232.969-.376.969-.376s.11-.413.266-1.031c.109-.617.231-1.453.363-2.288a21.229,21.229,0,0,0,.171-2.316c.025-.628.048-1.042.048-1.042H224.7Zm-24.733,19.922a19.926,19.926,0,1,1,19.92-19.922A19.955,19.955,0,0,1,199.964,461.666Z" transform="translate(-172.509 -414.291)" fill="#a0a0a0"/>
    </g>
    <g id="Group_28" data-name="Group 28" transform="translate(199.964 414.286)" opacity="0.2">
      <path id="Path_100" data-name="Path 100" d="M197.77,458.446v-5.912a11.59,11.59,0,0,0,0-23.179v-5.911a17.5,17.5,0,0,1,0,35Z" transform="translate(-197.77 -413.491)" fill="#a0a0a0"/>
      <path id="Path_101" data-name="Path 101" d="M225.215,441.744s-.023.414-.048,1.042A21.25,21.25,0,0,1,225,445.1c-.132.836-.254,1.67-.363,2.288-.158.618-.266,1.031-.266,1.031s-.387.145-.969.376a20.823,20.823,0,0,1-2.156.7q-.274.874-.617,1.708l2.5,1.041s-.159.388-.437.957-.592,1.346-1.042,2.06-.873,1.454-1.225,1.975c-.374.509-.628.849-.628.849s-.424-.013-1.054-.013a22.17,22.17,0,0,1-2.254-.195c-.4.461-.788.921-1.224,1.346l1.926,1.915s-.315.29-.787.714a18.992,18.992,0,0,1-1.757,1.5,26.91,26.91,0,0,1-2.787,1.913s-.376-.168-.958-.412c-.556-.241-1.3-.628-2.023-1.04-.534.265-1.078.531-1.637.775l1.042,2.5s-.4.146-.993.377a21.6,21.6,0,0,1-2.2.714,24.24,24.24,0,0,1-3.309.679s-.292-.292-.715-.74a22.06,22.06,0,0,1-1.477-1.732c-.594.035-1.2.084-1.806.084v-4.809a19.926,19.926,0,0,0,0-39.853v-7.524s.413.023,1.055.048a21.861,21.861,0,0,1,2.3.182c.836.134,1.672.243,2.29.363.616.158,1.028.254,1.028.254s.147.4.388.982a20.535,20.535,0,0,1,.69,2.144c.581.193,1.152.4,1.709.63l1.042-2.509s.388.159.957.437,1.358.608,2.072,1.055,1.443.86,1.964,1.223.848.63.848.63,0,.412-.012,1.042a22.032,22.032,0,0,1-.193,2.265c.472.388.919.788,1.343,1.212l1.926-1.915s.279.315.7.775a20.119,20.119,0,0,1,1.516,1.757,25.777,25.777,0,0,1,1.9,2.787s-.168.388-.412.957a22.045,22.045,0,0,1-1.043,2.023c.267.546.546,1.079.777,1.65l2.5-1.044s.156.389.374,1a18.21,18.21,0,0,1,.717,2.205,25.048,25.048,0,0,1,.689,3.294l-.751.726a19.251,19.251,0,0,1-1.732,1.467c.037.605.086,1.2.086,1.817h2.712Z" transform="translate(-197.77 -414.286)" fill="#a0a0a0"/>
    </g>
    <path id="Path_102" data-name="Path 102" d="M248.349,458.163a7.185,7.185,0,0,1-2.825.584c-.078,0-.15-.014-.228-.015a17.433,17.433,0,0,0,.221-2.648c0-.243-.025-.48-.036-.724a6.245,6.245,0,0,0,2.105-1.689,7.627,7.627,0,0,0,.636-8.229,6.34,6.34,0,0,1-3.465,4.832c-.07.036-.141.059-.21.094a17.326,17.326,0,0,0-1.4-3.074,6.419,6.419,0,0,0,1.073-2.475,7.66,7.66,0,0,0-3.256-7.571,6.356,6.356,0,0,1-.833,5.888c-.045.063-.1.114-.142.178a17.617,17.617,0,0,0-2.667-2.07,6.285,6.285,0,0,0-.2-2.691,7.631,7.631,0,0,0-6.416-5.188,6.333,6.333,0,0,1,2.012,5.593c-.009.076-.031.148-.042.224a17.581,17.581,0,0,0-3.326-.59,6.692,6.692,0,0,0-1.426-2.3,7.238,7.238,0,0,0-3.586-1.932,6.932,6.932,0,0,0-2.233-.165,7.1,7.1,0,0,0-2.267.5,6.715,6.715,0,0,1,1.593.63,6.336,6.336,0,0,1,1.242.973,6.969,6.969,0,0,1,1.535,2.4c.028.071.04.145.067.219a17.337,17.337,0,0,0-3.229,1.022,6.179,6.179,0,0,0-2.317-1.356,7.14,7.14,0,0,0-4.078-.047,7,7,0,0,0-2.05.893,7.209,7.209,0,0,0-1.774,1.486,6.726,6.726,0,0,1,1.7-.177,6.258,6.258,0,0,1,1.552.284,6.959,6.959,0,0,1,2.475,1.411c.058.05.1.11.159.162A17.473,17.473,0,0,0,214.337,445a6.221,6.221,0,0,0-2.683-.128,7.168,7.168,0,0,0-3.636,1.849,6.966,6.966,0,0,0-1.4,1.748,7.094,7.094,0,0,0-.88,2.147,6.734,6.734,0,0,1,1.425-.952,6.3,6.3,0,0,1,1.506-.474,6.965,6.965,0,0,1,2.848.1c.074.02.142.049.216.07a17.3,17.3,0,0,0-.991,3.238,6.179,6.179,0,0,0-2.426,1.138,6.448,6.448,0,0,0-1.38,1.44,9.342,9.342,0,0,0-.571.892,8.873,8.873,0,0,0-.406.991,6.911,6.911,0,0,0-.436,2.193,7.188,7.188,0,0,0,.216,2.307,5.948,5.948,0,0,1,1.936-2.619,6.812,6.812,0,0,1,2.572-1.231c.075-.02.15-.023.226-.04a17.538,17.538,0,0,0,.626,3.32,6.57,6.57,0,0,0-.6.568,6.655,6.655,0,0,0-1.023,1.571,5.97,5.97,0,0,0-.561,1.922,6.828,6.828,0,0,0,.011,2.129,7.85,7.85,0,0,0,1.906,4.082,6.016,6.016,0,0,1,.492-3.218,6.9,6.9,0,0,1,1.7-2.292c.06-.051.124-.089.183-.14a17.615,17.615,0,0,0,2.1,2.648,6.325,6.325,0,0,0-.267.784,6.657,6.657,0,0,0-.175,1.868,6.027,6.027,0,0,0,.39,1.958,6.73,6.73,0,0,0,1,1.879,7.808,7.808,0,0,0,3.588,2.736,5.983,5.983,0,0,1-1.06-3.08,6.8,6.8,0,0,1,.448-2.82c.027-.073.068-.137.1-.208a17.5,17.5,0,0,0,3.085,1.37,5.773,5.773,0,0,0,.842,2.552,5.939,5.939,0,0,0,1.261,1.551,6.991,6.991,0,0,0,1.757,1.2,8.006,8.006,0,0,0,4.435.756,6.334,6.334,0,0,1-3.278-4.954c-.012-.078-.005-.153-.014-.229.18.007.357.027.539.027a17.609,17.609,0,0,0,2.831-.249,6,6,0,0,0,1.928,1.878,7.208,7.208,0,0,0,3.962,1.05,9.516,9.516,0,0,0,2.21-.379,9.294,9.294,0,0,0,2.076-1.026,6.33,6.33,0,0,1-3.136-.874,7.115,7.115,0,0,1-2.08-1.988c-.045-.064-.074-.129-.116-.2A17.4,17.4,0,0,0,238.5,470.1a5.975,5.975,0,0,0,2.583.763,7.167,7.167,0,0,0,3.988-.908,9.227,9.227,0,0,0,1.78-1.356,8.958,8.958,0,0,0,1.365-1.873,6.327,6.327,0,0,1-5.945-.117c-.068-.036-.127-.083-.195-.118a17.735,17.735,0,0,0,1.732-2.9,6.035,6.035,0,0,0,2.641-.522,7.218,7.218,0,0,0,3.112-2.664,10.169,10.169,0,0,0,.944-2.035,10.747,10.747,0,0,0,.34-2.286A6.5,6.5,0,0,1,248.349,458.163ZM228.18,463.65a7.542,7.542,0,1,1,7.543-7.542A7.543,7.543,0,0,1,228.18,463.65Z" transform="translate(2.866 1.657)" fill="#005078"/>
    <path id="Path_103" data-name="Path 103" d="M211.542,471.394l-10.982-3.553-8.568,7.734,2.416,11.287,10.982,3.552,8.568-7.733Zm-10.378,13.333a5.884,5.884,0,1,1,7.412-3.789A5.884,5.884,0,0,1,201.164,484.727Z" transform="translate(1.692 4.652)" fill="#8c8c8c"/>
    <g id="Group_29" data-name="Group 29" transform="translate(231.046 435.022)" opacity="0.15">
      <path id="Path_104" data-name="Path 104" d="M228.895,475.374a6.165,6.165,0,0,1-2.527-2.549v2.428A8.055,8.055,0,0,0,228.895,475.374Z" transform="translate(-226.368 -429.938)" fill="#dcdcdc"/>
      <path id="Path_105" data-name="Path 105" d="M246.537,458.163a7.185,7.185,0,0,1-2.825.584c-.078,0-.15-.014-.228-.015a17.437,17.437,0,0,0,.221-2.648c0-.243-.025-.48-.036-.724a6.245,6.245,0,0,0,2.105-1.689,7.627,7.627,0,0,0,.636-8.229,6.34,6.34,0,0,1-3.465,4.832c-.07.036-.141.059-.21.094a17.324,17.324,0,0,0-1.4-3.074,6.419,6.419,0,0,0,1.073-2.475,7.66,7.66,0,0,0-3.256-7.571,6.356,6.356,0,0,1-.833,5.888c-.045.063-.1.114-.142.178a17.617,17.617,0,0,0-2.667-2.07,6.285,6.285,0,0,0-.2-2.691,7.631,7.631,0,0,0-6.416-5.188,6.334,6.334,0,0,1,2.012,5.593c-.009.076-.032.148-.042.224a17.58,17.58,0,0,0-3.326-.59,6.685,6.685,0,0,0-1.171-2V448.57a7.542,7.542,0,1,1,0,15.083v9.984a18.192,18.192,0,0,0,2.605-.238,6,6,0,0,0,1.928,1.878,7.208,7.208,0,0,0,3.962,1.05,9.512,9.512,0,0,0,2.21-.379,9.289,9.289,0,0,0,2.076-1.026,6.33,6.33,0,0,1-3.136-.874,7.118,7.118,0,0,1-2.08-1.988c-.045-.064-.074-.129-.116-.2a17.412,17.412,0,0,0,2.876-1.765,5.974,5.974,0,0,0,2.583.763,7.167,7.167,0,0,0,3.988-.907,9.227,9.227,0,0,0,1.78-1.356,8.962,8.962,0,0,0,1.365-1.873,6.327,6.327,0,0,1-5.945-.117c-.068-.036-.127-.083-.195-.118a17.732,17.732,0,0,0,1.732-2.9,6.035,6.035,0,0,0,2.641-.522,7.217,7.217,0,0,0,3.112-2.664,10.166,10.166,0,0,0,.944-2.035,10.747,10.747,0,0,0,.34-2.286A6.549,6.549,0,0,1,246.537,458.163Z" transform="translate(-226.368 -433.365)" fill="#dcdcdc"/>
    </g>
  </g>
</svg>
