<svg xmlns="http://www.w3.org/2000/svg" width="135.748" height="220.75" viewBox="0 0 135.748 220.75">
  <path id="Path_76" data-name="Path 76" d="M412.907,267.976H315.282l11.263-49.556h75.1Z" transform="translate(-315.282 -47.226)" fill="#969696"/>
  <path id="Path_77" data-name="Path 77" d="M386.447,218.42a37.8,37.8,0,0,1-3.516,16.038c-5.336,11.463-16.216,19.307-28.765,19.307s-23.424-7.844-28.763-19.307a37.757,37.757,0,0,1-3.514-16.038Z" transform="translate(-305.353 -47.226)" fill="#646464"/>
  <path id="Path_78" data-name="Path 78" d="M348.566,185.127c-11.893,11.9-11.981,40.528-11.981,61.928V287.6h12.592V249.307c0-34.914,7.876-36.151,7.876-36.151Z" transform="translate(-283.267 -97.26)" fill="#ff9600"/>
  <path id="Path_79" data-name="Path 79" d="M365.864,248.491l.21-.12,6.022,6.084,4.871-12.377,33.44-19.3a35.291,35.291,0,1,0-35.292-61.124l-44.545,25.717Z" transform="translate(-292.308 -139.658)" fill="#969696"/>
  <path id="Path_80" data-name="Path 80" d="M332.086,167.911a2.258,2.258,0,0,1,3.078.823l40.05,69.376a2.256,2.256,0,0,1-.823,3.076l-1.87,1.081a2.262,2.262,0,0,1-3.078-.826l-40.053-69.373a2.261,2.261,0,0,1,.828-3.078Z" transform="translate(-294.529 -123.586)" fill="#c8c8c8"/>
  <path id="Path_81" data-name="Path 81" d="M377.543,183.568a16.614,16.614,0,1,1-16.614-16.609A16.618,16.618,0,0,1,377.543,183.568Z" transform="translate(-271.65 -124.563)" fill="#005078"/>
  <path id="Path_82" data-name="Path 82" d="M329.391,188.139l18.163,31.456,77.993-45.028a35.29,35.29,0,0,0-48.209-12.917L335.68,185.7l-.516-.893a2.259,2.259,0,0,0-3.078-.823l-1.867,1.079A2.261,2.261,0,0,0,329.391,188.139Z" transform="translate(-294.529 -139.659)" fill="#c8c8c8" opacity="0.1"/>
  <path id="Path_83" data-name="Path 83" d="M367.567,209.024l-8.307-59h-8.307v59Z" transform="translate(-261.674 -150.02)" fill="#005078"/>
  <path id="Path_85" data-name="Path 85" d="M380.82,224.828c-5.336,11.463-16.216,19.307-28.765,19.307s-23.424-7.844-28.763-19.307Z" transform="translate(-303.244 -37.596)" fill="#ff9600"/>
  <path id="Path_86" data-name="Path 86" d="M334.784,267.976H383.6L372.336,218.42H334.784Z" transform="translate(-285.974 -47.226)" fill="#c8c8c8" opacity="0.15"/>
</svg>
