<svg xmlns="http://www.w3.org/2000/svg" width="51" height="50.989" viewBox="0 0 51 50.989">
  <path id="instagram-brands-solid-full" d="M121.631,108.246a13.084,13.084,0,1,0,13.05,13.118A13.086,13.086,0,0,0,121.631,108.246Zm-.068,4.6a8.488,8.488,0,1,1-8.454,8.522A8.488,8.488,0,0,1,121.562,112.843Zm10.627-5.131a3.049,3.049,0,1,1,3.049,3.049A3.049,3.049,0,0,1,132.189,107.712Zm14.757,3.095c-.193-4.085-1.126-7.7-4.119-10.684s-6.6-3.914-10.684-4.119c-4.21-.239-16.827-.239-21.037,0-4.073.193-7.691,1.126-10.684,4.107s-3.914,6.6-4.119,10.684c-.239,4.21-.239,16.827,0,21.037.193,4.085,1.126,7.7,4.119,10.684s6.6,3.914,10.684,4.119c4.21.239,16.827.239,21.037,0,4.085-.193,7.7-1.126,10.684-4.119s3.914-6.6,4.119-10.684C147.185,127.623,147.185,115.016,146.946,110.806Zm-5.438,25.543a8.6,8.6,0,0,1-4.847,4.847c-3.356,1.331-11.321,1.024-15.03,1.024s-11.685.3-15.03-1.024a8.6,8.6,0,0,1-4.847-4.847c-1.331-3.356-1.024-11.321-1.024-15.03s-.3-11.685,1.024-15.03a8.6,8.6,0,0,1,4.847-4.847c3.356-1.331,11.321-1.024,15.03-1.024s11.685-.3,15.03,1.024a8.6,8.6,0,0,1,4.847,4.847c1.331,3.356,1.024,11.321,1.024,15.03S142.839,133,141.507,136.349Z" transform="translate(-96.125 -95.825)" fill="#4a6ca5"/>
</svg>
