<svg xmlns="http://www.w3.org/2000/svg" width="51" height="40.8" viewBox="0 0 51 40.8">
  <path id="mail_24dp_E3E3E3_FILL0_wght400_GRAD0_opsz24" d="M85.1-759.2a4.911,4.911,0,0,1-3.6-1.5,4.911,4.911,0,0,1-1.5-3.6v-30.6a4.911,4.911,0,0,1,1.5-3.6,4.911,4.911,0,0,1,3.6-1.5h40.8a4.911,4.911,0,0,1,3.6,1.5,4.911,4.911,0,0,1,1.5,3.6v30.6a4.911,4.911,0,0,1-1.5,3.6,4.911,4.911,0,0,1-3.6,1.5Zm20.4-17.85L85.1-789.8v25.5h40.8v-25.5Zm0-5.1,20.4-12.75H85.1ZM85.1-789.8v0Z" transform="translate(-80 800)" fill="#4a6ca5"/>
</svg>
