<svg xmlns="http://www.w3.org/2000/svg" width="44.571" height="46.003" viewBox="0 0 44.571 46.003">
  <path id="phone_enabled_24dp_E3E3E3_FILL0_wght400_GRAD0_opsz24" d="M122.6-794a2.479,2.479,0,0,1-1.857-.767,2.645,2.645,0,0,1-.743-1.917v-10.351a2.291,2.291,0,0,1,.557-1.5,2.856,2.856,0,0,1,1.424-.926l8.543-1.789a3.869,3.869,0,0,1,1.764.16,3.444,3.444,0,0,1,1.455.863l5.819,6.006a39.082,39.082,0,0,0,4.457-3.1,44.02,44.02,0,0,0,4.024-3.674,44.472,44.472,0,0,0,3.745-4.249,31,31,0,0,0,2.94-4.568l-6-6.261a2.709,2.709,0,0,1-.681-1.214,4.648,4.648,0,0,1-.062-1.725l1.609-8.945a2.353,2.353,0,0,1,.8-1.438,2.262,2.262,0,0,1,1.548-.607h10.029a2.479,2.479,0,0,1,1.857.767,2.645,2.645,0,0,1,.743,1.917,39.4,39.4,0,0,1-3.374,15.781,47.267,47.267,0,0,1-9.564,14.184,45.745,45.745,0,0,1-13.743,9.871A36.2,36.2,0,0,1,122.6-794Zm34.419-30.668a28.629,28.629,0,0,0,1.61-5.047q.557-2.556.867-5.175h-5.448l-1.114,6.006ZM134.857-801.92l-4.086-4.217-5.819,1.278v5.623a25.3,25.3,0,0,0,5.014-.894A35.607,35.607,0,0,0,134.857-801.92ZM157.019-824.666ZM134.857-801.92Z" transform="translate(-120 840)" fill="#4a6ca5"/>
</svg>
