<svg xmlns="http://www.w3.org/2000/svg" width="51.658" height="49.198" viewBox="0 0 51.658 49.198">
  <path id="globe_location_pin_24dp_E3E3E3_FILL0_wght400_GRAD0_opsz24" d="M104.6-830.8a23.953,23.953,0,0,1-9.594-1.937A24.841,24.841,0,0,1,87.2-838a24.842,24.842,0,0,1-5.258-7.81A23.954,23.954,0,0,1,80-855.4a23.954,23.954,0,0,1,1.937-9.594A24.841,24.841,0,0,1,87.2-872.8a24.843,24.843,0,0,1,7.81-5.258A23.954,23.954,0,0,1,104.6-880a23.747,23.747,0,0,1,16.2,6.027,23.928,23.928,0,0,1,8.148,15.005,12.761,12.761,0,0,0-2.552-.953,13.356,13.356,0,0,0-2.737-.4,19.542,19.542,0,0,0-4.213-7.995,19.277,19.277,0,0,0-7.472-5.289v.984a4.738,4.738,0,0,1-1.445,3.475,4.737,4.737,0,0,1-3.475,1.445h-4.92v4.92a2.38,2.38,0,0,1-.707,1.753,2.38,2.38,0,0,1-1.753.707h-4.92v4.92h14.759a2.474,2.474,0,0,1,1.261.338,2.227,2.227,0,0,1,.892.953,14.226,14.226,0,0,0-1.6,3.505,13.2,13.2,0,0,0-.553,3.813,13.7,13.7,0,0,0,2,7.2q2,3.321,4.09,6.211a26.24,26.24,0,0,1-5.289,1.906A24,24,0,0,1,104.6-830.8Zm-2.46-5.043v-4.8a4.738,4.738,0,0,1-3.475-1.445,4.738,4.738,0,0,1-1.445-3.475v-2.46L85.412-859.829q-.185,1.107-.338,2.214a16.074,16.074,0,0,0-.154,2.214,19.2,19.2,0,0,0,4.889,13.037A18.932,18.932,0,0,0,102.139-835.845Zm20.909,5.043a1.144,1.144,0,0,1-.738-.246,1.3,1.3,0,0,1-.43-.615,15.6,15.6,0,0,0-1.906-4q-1.23-1.845-2.644-3.628a14.433,14.433,0,0,1-2.091-3.505,10.234,10.234,0,0,1-.8-4,8.3,8.3,0,0,1,2.521-6.088,8.3,8.3,0,0,1,6.088-2.521,8.3,8.3,0,0,1,6.088,2.521,8.3,8.3,0,0,1,2.521,6.088,9.692,9.692,0,0,1-.83,3.967,18.513,18.513,0,0,1-2.06,3.536q-1.414,1.783-2.644,3.628a15.6,15.6,0,0,0-1.906,4,1.3,1.3,0,0,1-.43.615A1.144,1.144,0,0,1,123.048-830.8Zm0-6.949a14.8,14.8,0,0,1,1.353-1.937q.738-.892,1.414-1.814a16.1,16.1,0,0,0,1.507-2.491,6.3,6.3,0,0,0,.646-2.8,4.738,4.738,0,0,0-1.445-3.475,4.737,4.737,0,0,0-3.475-1.445,4.737,4.737,0,0,0-3.475,1.445,4.738,4.738,0,0,0-1.445,3.475,6.3,6.3,0,0,0,.646,2.8,16.1,16.1,0,0,0,1.507,2.491q.738.922,1.445,1.814A16.9,16.9,0,0,1,123.048-837.751Zm0-5.965a2.969,2.969,0,0,1-2.183-.892,2.969,2.969,0,0,1-.892-2.183,2.969,2.969,0,0,1,.892-2.183,2.969,2.969,0,0,1,2.183-.892,2.969,2.969,0,0,1,2.183.892,2.969,2.969,0,0,1,.892,2.183,2.969,2.969,0,0,1-.892,2.183A2.969,2.969,0,0,1,123.048-843.717Z" transform="translate(-80 880)" fill="#4a6ca5"/>
</svg>
