<svg xmlns="http://www.w3.org/2000/svg" width="40.5" height="30.375" viewBox="0 0 40.5 30.375">
  <path id="hand-point-left-regular-full" d="M69.063,133.063H83.111a6.667,6.667,0,0,0-.127,1.266v1.266H69.063a1.266,1.266,0,0,1,0-2.531Zm17.719,1.266a2.529,2.529,0,0,1,2.531-2.531h1.9a9.49,9.49,0,0,1,9.492,9.492v3.8a9.494,9.494,0,0,1-6.383,8.97,4.637,4.637,0,0,0,.055-.744,5.074,5.074,0,0,0-1.867-3.931,5.01,5.01,0,0,0,.6-2.4A5.091,5.091,0,0,0,92,143.82a5.044,5.044,0,0,0,1.107-3.164v-3.164a1.9,1.9,0,0,0-3.8,0v3.164a1.266,1.266,0,0,1-2.531,0ZM89.313,128h0a6.33,6.33,0,0,0-3.8,1.266H69.063a5.063,5.063,0,0,0,0,10.125h6.486a5.137,5.137,0,0,0-.158,1.266,5.07,5.07,0,0,0,2.848,4.556,5.086,5.086,0,0,0,1.55,5.7,5.01,5.01,0,0,0-.6,2.4,5.067,5.067,0,0,0,5.063,5.063h6.961A13.287,13.287,0,0,0,104.5,145.086v-3.8A13.287,13.287,0,0,0,91.211,128ZM84.25,154.578a1.266,1.266,0,0,1,0-2.531h5.063a1.266,1.266,0,0,1,0,2.531Zm-1.266-13.922a5.137,5.137,0,0,0,.158,1.266H80.453a1.266,1.266,0,0,1,0-2.531h2.531Zm1.9,5.063h3.164a1.266,1.266,0,0,1,0,2.531H82.984a1.266,1.266,0,0,1,0-2.531Z" transform="translate(-64 -128)" fill="#4a6ca5"/>
</svg>
