<svg xmlns="http://www.w3.org/2000/svg" width="38.979" height="38.979" viewBox="0 0 38.979 38.979">
  <path id="search_24dp_FFFFFF_FILL0_wght400_GRAD0_opsz24" d="M155.948-801.021,142.3-814.663a12.9,12.9,0,0,1-3.736,2.057,13.2,13.2,0,0,1-4.493.758,13.588,13.588,0,0,1-9.988-4.087A13.587,13.587,0,0,1,120-825.924a13.588,13.588,0,0,1,4.087-9.989A13.588,13.588,0,0,1,134.076-840a13.588,13.588,0,0,1,9.988,4.087,13.588,13.588,0,0,1,4.087,9.989,13.2,13.2,0,0,1-.758,4.493,12.9,12.9,0,0,1-2.057,3.736l13.643,13.643Zm-21.872-15.159a9.4,9.4,0,0,0,6.9-2.842,9.4,9.4,0,0,0,2.842-6.9,9.4,9.4,0,0,0-2.842-6.9,9.4,9.4,0,0,0-6.9-2.842,9.4,9.4,0,0,0-6.9,2.842,9.4,9.4,0,0,0-2.842,6.9,9.4,9.4,0,0,0,2.842,6.9A9.4,9.4,0,0,0,134.076-816.179Z" transform="translate(-120 840)" fill="#fff"/>
</svg>
