<svg id="Group_13" data-name="Group 13" xmlns="http://www.w3.org/2000/svg" width="215.139" height="244.937" viewBox="0 0 215.139 244.937">
  <path id="Path_10" data-name="Path 10" d="M391.442,176.376H176.3s7.586-39.053,10.845-56.013c3.115-16.325,14.941-22.93,23.19-26.622.317-.144.631-.288.952-.433,4.871-2.106,15.085-6.72,22.7-10.153,5.365-2.423,9.4-4.269,9.4-4.269h80.991s4.3,1.958,9.861,4.5c7.563,3.4,17.453,7.874,22.215,9.922.458.2.955.4,1.442.635,8.246,3.75,19.636,10.412,22.725,26.42C383.857,137.323,391.442,176.376,391.442,176.376Z" transform="translate(-176.303 68.561)" fill="#dcdcdc"/>
  <rect id="Rectangle_20" data-name="Rectangle 20" width="147.583" height="56.244" transform="translate(33.9 188.684)" fill="#005078"/>
  <path id="Path_11" data-name="Path 11" d="M210.536,80.219v49.825a8.654,8.654,0,0,1-8.653,8.653h-6.345a8.654,8.654,0,0,1-8.653-8.653V90.8l.952-.433C192.711,88.266,202.922,83.651,210.536,80.219Z" transform="translate(-152.972 71.498)" fill="#00648c"/>
  <g id="Group_12" data-name="Group 12" transform="translate(38.226 193.01)">
    <path id="Path_12" data-name="Path 12" d="M189.673,112.826a1.442,1.442,0,0,1-1.442-1.442V108.5a1.442,1.442,0,1,1,2.884,0v2.884A1.444,1.444,0,0,1,189.673,112.826Z" transform="translate(-188.231 -62.341)" fill="#00648c"/>
    <path id="Path_13" data-name="Path 13" d="M189.673,122.427a1.442,1.442,0,0,1-1.442-1.442v-6.435a1.442,1.442,0,1,1,2.884,0v6.435A1.444,1.444,0,0,1,189.673,122.427Zm0-16.091a1.442,1.442,0,0,1-1.442-1.442V98.458a1.442,1.442,0,1,1,2.884,0v6.435A1.442,1.442,0,0,1,189.673,106.335Z" transform="translate(-188.231 -84.479)" fill="#00648c"/>
    <path id="Path_14" data-name="Path 14" d="M189.673,98.873a1.442,1.442,0,0,1-1.442-1.442V93.1h4.326a1.442,1.442,0,1,1,0,2.884h-1.442V97.43A1.444,1.444,0,0,1,189.673,98.873Z" transform="translate(-188.231 -93.104)" fill="#00648c"/>
    <path id="Path_15" data-name="Path 15" d="M305.506,95.988h-6.057a1.442,1.442,0,1,1,0-2.884h6.057a1.442,1.442,0,1,1,0,2.884Zm-15.146,0H284.3a1.442,1.442,0,1,1,0-2.884h6.06a1.442,1.442,0,1,1,0,2.884Zm-15.149,0h-6.06a1.442,1.442,0,1,1,0-2.884h6.06a1.442,1.442,0,1,1,0,2.884Zm-15.149,0H254a1.442,1.442,0,1,1,0-2.884h6.06a1.442,1.442,0,0,1,0,2.884Zm-15.149,0h-6.06a1.442,1.442,0,1,1,0-2.884h6.06a1.442,1.442,0,1,1,0,2.884Zm-15.146,0h-6.06a1.442,1.442,0,1,1,0-2.884h6.06a1.442,1.442,0,1,1,0,2.884Zm-15.149,0h-6.06a1.442,1.442,0,1,1,0-2.884h6.06a1.442,1.442,0,1,1,0,2.884Zm-15.149,0h-6.06a1.442,1.442,0,1,1,0-2.884h6.06a1.442,1.442,0,1,1,0,2.884Z" transform="translate(-179.994 -93.104)" fill="#00648c"/>
    <path id="Path_16" data-name="Path 16" d="M234.108,98.873a1.444,1.444,0,0,1-1.442-1.442V95.988h-1.442a1.442,1.442,0,1,1,0-2.884h4.33V97.43A1.449,1.449,0,0,1,234.108,98.873Z" transform="translate(-96.621 -93.104)" fill="#00648c"/>
    <path id="Path_17" data-name="Path 17" d="M232.124,122.423a1.444,1.444,0,0,1-1.442-1.442v-6.435a1.442,1.442,0,1,1,2.884,0v6.435A1.442,1.442,0,0,1,232.124,122.423Zm0-16.088a1.444,1.444,0,0,1-1.442-1.442V98.458a1.442,1.442,0,1,1,2.884,0v6.435A1.442,1.442,0,0,1,232.124,106.335Z" transform="translate(-94.636 -84.479)" fill="#00648c"/>
    <path id="Path_18" data-name="Path 18" d="M232.124,112.826a1.444,1.444,0,0,1-1.442-1.442V108.5a1.442,1.442,0,1,1,2.884,0v2.884A1.444,1.444,0,0,1,232.124,112.826Z" transform="translate(-94.636 -62.341)" fill="#00648c"/>
  </g>
  <path id="Path_19" data-name="Path 19" d="M201.831,99.342a6.669,6.669,0,1,1-6.669-6.669A6.67,6.67,0,0,1,201.831,99.342Z" transform="translate(-149.427 98.956)" fill="#ffb400"/>
  <path id="Path_20" data-name="Path 20" d="M225.551,80.219v49.825A8.654,8.654,0,0,0,234.2,138.7h6.345a8.654,8.654,0,0,0,8.653-8.653V90.8q-.481-.216-.952-.433C243.376,88.266,233.169,83.651,225.551,80.219Z" transform="translate(-67.723 71.498)" fill="#00648c"/>
  <path id="Path_21" data-name="Path 21" d="M240.5,99.342a6.671,6.671,0,1,1-6.669-6.669A6.67,6.67,0,0,1,240.5,99.342Z" transform="translate(-64.177 98.956)" fill="#ffb400"/>
  <rect id="Rectangle_21" data-name="Rectangle 21" width="64.291" height="31.727" transform="translate(75.306 213.2)" fill="#00648c"/>
  <path id="Path_22" data-name="Path 22" d="M283.812,93.943c-.487-.231-.984-.433-1.442-.635-4.759-2.048-14.649-6.519-22.215-9.922-5.563-2.541-9.861-4.5-9.861-4.5H209.907v97.486H317.353s-7.582-39.053-10.816-56.013C303.448,104.355,292.058,97.693,283.812,93.943Z" transform="translate(-102.214 68.561)" fill="#dcdcdc" opacity="0.15"/>
  <path id="Path_23" data-name="Path 23" d="M317.6,106.775l-14.05,72.857s-25.584,9.72-49.754,9.72-49.754-9.72-49.754-9.72L190,106.775l14.768-64.522s24.513-9.374,49.033-9.374,49.033,9.374,49.033,9.374Z" transform="translate(-146.109 -32.876)" fill="#969696"/>
  <path id="Path_24" data-name="Path 24" d="M201.8,80.148a5.786,5.786,0,0,1-5.769-5.769V52.748a5.786,5.786,0,0,1,5.769-5.769h76.911a5.786,5.786,0,0,1,5.769,5.769V74.38a5.786,5.786,0,0,1-5.769,5.769Z" transform="translate(-132.805 -1.789)" fill="#aaa"/>
  <path id="Path_25" data-name="Path 25" d="M274.754,53.108V66.088a4.339,4.339,0,0,1-4.327,4.326H202.157a4.363,4.363,0,0,1-4.33-4.24V53.108a4.34,4.34,0,0,1,4.33-4.326h68.271a3.832,3.832,0,0,1,2.048.548A4.236,4.236,0,0,1,274.754,53.108Z" transform="translate(-128.848 2.187)" fill="#505050"/>
  <path id="Path_26" data-name="Path 26" d="M232.959,48.782l-21.6,21.632h-9.2a4.363,4.363,0,0,1-4.33-4.24L215.22,48.782h17.738Z" transform="translate(-128.845 2.187)" fill="#fff" opacity="0.15"/>
  <path id="Path_27" data-name="Path 27" d="M253.8,105.345v33.169c-24.17,0-49.754-9.72-49.754-9.72L190,55.937l23.651,49.408Z" transform="translate(-146.109 17.962)" fill="#828282"/>
  <path id="Path_28" data-name="Path 28" d="M209.908,105.345v33.169c24.17,0,49.754-9.72,49.754-9.72l14.05-72.857-23.654,49.408Z" transform="translate(-102.212 17.962)" fill="#828282"/>
  <path id="Path_29" data-name="Path 29" d="M237.9,52.731v7.441l-9.864,9.864h-13.5l21.084-21.084A4.236,4.236,0,0,1,237.9,52.731Z" transform="translate(-91.997 2.564)" fill="#fff" opacity="0.15"/>
  <path id="Path_30" data-name="Path 30" d="M259.661,179.618l14.063-72.828L258.94,42.252s-24.516-9.374-49.033-9.374V189.351C234.058,189.354,259.661,179.618,259.661,179.618Z" transform="translate(-102.214 -32.878)" fill="#969696" opacity="0.15"/>
</svg>
