<svg id="Group_16" data-name="Group 16" xmlns="http://www.w3.org/2000/svg" width="244.697" height="237.206" viewBox="0 0 244.697 237.206">
  <rect id="Rectangle_31" data-name="Rectangle 31" width="66.235" height="141.258" transform="translate(18.64 46.862) rotate(-45)" fill="#005078"/>
  <rect id="Rectangle_32" data-name="Rectangle 32" width="35.608" height="141.258" transform="translate(40.31 25.178) rotate(-45)" fill="#dcdcdc" opacity="0.15"/>
  <path id="Path_52" data-name="Path 52" d="M226.511,265.543a83.23,83.23,0,1,1-83.229-83.225A83.234,83.234,0,0,1,226.511,265.543Z" transform="translate(18.186 -125.643)" fill="#969696"/>
  <path id="Path_53" data-name="Path 53" d="M140.855,342.839a79.717,79.717,0,1,1,79.715-79.721A79.808,79.808,0,0,1,140.855,342.839Z" transform="translate(20.614 -123.217)" fill="#a0a0a0"/>
  <path id="Path_54" data-name="Path 54" d="M120.824,293.789a50.7,50.7,0,1,1,50.7-50.7A50.757,50.757,0,0,1,120.824,293.789Z" transform="translate(40.645 -103.184)" fill="#dcdcdc"/>
  <path id="Path_55" data-name="Path 55" d="M115.952,281.864A43.644,43.644,0,1,1,159.6,238.218,43.693,43.693,0,0,1,115.952,281.864Zm0-76.741a33.095,33.095,0,1,0,33.1,33.092A33.13,33.13,0,0,0,115.952,205.123Z" transform="translate(45.516 -98.315)" fill="#a0a0a0"/>
  <path id="Path_56" data-name="Path 56" d="M101.042,245.35A22.042,22.042,0,1,1,123.083,223.3,22.071,22.071,0,0,1,101.042,245.35Zm0-40.568A18.526,18.526,0,1,0,119.566,223.3,18.546,18.546,0,0,0,101.042,204.782Z" transform="translate(60.427 -83.402)" fill="#a0a0a0"/>
  <path id="Path_57" data-name="Path 57" d="M136,330.951a72.683,72.683,0,1,1,72.681-72.688A72.766,72.766,0,0,1,136,330.951ZM136,189.1a69.164,69.164,0,1,0,69.164,69.161A69.241,69.241,0,0,0,136,189.1Z" transform="translate(25.472 -118.359)" fill="#969696"/>
  <path id="Path_58" data-name="Path 58" d="M129.931,316.091a63.892,63.892,0,1,1,63.888-63.9A63.966,63.966,0,0,1,129.931,316.091Zm0-126.025a62.132,62.132,0,1,0,62.128,62.128A62.2,62.2,0,0,0,129.931,190.066Z" transform="translate(31.538 -112.293)" fill="#969696"/>
  <path id="Path_59" data-name="Path 59" d="M169.052,265.543a83.228,83.228,0,0,0-83.228-83.225v166.46A83.23,83.23,0,0,0,169.052,265.543Z" transform="translate(75.645 -125.643)" fill="#969696" opacity="0.2"/>
  <path id="Path_60" data-name="Path 60" d="M195.26,259.263H44.624l7.027-30.482H188.23Z" transform="translate(-16.207 -22.057)" fill="#505050"/>
  <path id="Path_61" data-name="Path 61" d="M99.853,242.229a1.492,1.492,0,0,1-.52-.1L38.665,218.981a1.454,1.454,0,1,1,1.037-2.716l60.668,23.148a1.456,1.456,0,0,1-.517,2.816Z" transform="translate(-31.579 -50.17)" fill="#ffc800"/>
  <path id="Path_62" data-name="Path 62" d="M93.535,298.865a1.443,1.443,0,0,1-1.066-.468C69.188,273.236,46.854,231.1,49.444,193.705a1.4,1.4,0,0,1,1.55-1.347,1.449,1.449,0,0,1,1.347,1.55c-2.512,36.337,20.145,78.614,42.26,102.515a1.453,1.453,0,0,1-1.066,2.441Z" transform="translate(-5.92 -103.286)" fill="#ff9600"/>
  <path id="Path_63" data-name="Path 63" d="M98.964,230.865a.722.722,0,0,1-.084,0l-53.337-3.074a1.45,1.45,0,0,1-1.366-1.534,1.43,1.43,0,0,1,1.534-1.366l53.337,3.074a1.453,1.453,0,0,1-.084,2.9Z" transform="translate(-17.21 -30.749)" fill="#ff9600"/>
  <path id="Path_64" data-name="Path 64" d="M89.15,254.107a1.44,1.44,0,0,1-.885-.3c-1.786-1.379-43.839-33.951-52.236-48.1a1.454,1.454,0,0,1,2.5-1.486c8.116,13.67,51.083,46.946,51.516,47.282a1.452,1.452,0,0,1,.262,2.038A1.472,1.472,0,0,1,89.15,254.107Z" transform="translate(-35.825 -78.395)" fill="#ff9600"/>
  <path id="Path_65" data-name="Path 65" d="M71.7,270.7a1.448,1.448,0,0,1-1.134-.546c-26.536-33.008-30.082-65.115-28-78.882a1.452,1.452,0,1,1,2.871.433c-2.015,13.3,1.486,44.4,27.389,76.628a1.449,1.449,0,0,1-.223,2.041A1.425,1.425,0,0,1,71.7,270.7Z" transform="translate(-21.894 -108.439)" fill="#ffc800"/>
</svg>
