<svg xmlns="http://www.w3.org/2000/svg" width="130.514" height="108.547" viewBox="0 0 130.514 108.547">
  <g id="Group_47" data-name="Group 47" transform="translate(-435.823 -291.722)">
    <path id="Path_129" data-name="Path 129" d="M526.464,356.5a11.847,11.847,0,0,0,3.009-3.944,12.987,12.987,0,0,0,1.159-5.014,11.017,11.017,0,0,1-5.867,3.655c.116-1.2.185-2.423.185-3.655,0-.916-.072-1.808-.137-2.706a10.251,10.251,0,0,0,2.255-2.923,11.014,11.014,0,0,0,1.382-4.759,12.176,12.176,0,0,0-.053-2.581,15.57,15.57,0,0,0-.687-2.52,10.523,10.523,0,0,1-4.15,5.536,36.8,36.8,0,0,0-2.255-6.027,11.349,11.349,0,0,0-1.9-12.9,10.3,10.3,0,0,1-1.493,6.106c-.113.194-.248.37-.372.553a37.106,37.106,0,0,0-4.275-4.81,12.872,12.872,0,0,0-.231-3.666,13.1,13.1,0,0,0-2.194-4.433,11.746,11.746,0,0,0-4-3.241,10.653,10.653,0,0,1,.662,6.879,37.045,37.045,0,0,0-5.729-2.963,11.205,11.205,0,0,0-5.192-6.663,12.917,12.917,0,0,0-4.9-1.586,10.967,10.967,0,0,1,3.111,6.178,37.319,37.319,0,0,0-6.411-.66,10.164,10.164,0,0,0-2.63-2.493,14.685,14.685,0,0,0-2.183-1.194,14.186,14.186,0,0,0-2.428-.629,11.3,11.3,0,0,0-5.143.261,10.564,10.564,0,0,1,5.122,4.646,36.919,36.919,0,0,0-6.15,1.667,10.4,10.4,0,0,0-3.432-1.384,11.8,11.8,0,0,0-9.638,2.109,10.829,10.829,0,0,1,3.213.579,11.67,11.67,0,0,1,2.724,1.47c.185.13.343.278.518.419a36.891,36.891,0,0,0-5.182,3.817,12.066,12.066,0,0,0-3.666-.106,11.935,11.935,0,0,0-8.215,5.451,10.405,10.405,0,0,1,6.275-.229c.22.056.423.141.634.209a37.322,37.322,0,0,0-3.474,5.421,12.563,12.563,0,0,0-3.433,1.234,12.9,12.9,0,0,0-3.7,3.317,12.688,12.688,0,0,0-2.018,4.738,10.9,10.9,0,0,1,6.434-2.532,37.658,37.658,0,0,0-1.273,6.335,10.515,10.515,0,0,0-2.71,2.382,11.862,11.862,0,0,0-2.453,9.566,10.654,10.654,0,0,1,5.094-4.669,36.514,36.514,0,0,0,1.1,6.273,10.052,10.052,0,0,0-1.694,3.291,11.447,11.447,0,0,0-.477,4.93,15.79,15.79,0,0,0,.534,2.53,13.624,13.624,0,0,0,1.148,2.338,10.255,10.255,0,0,1,2.586-5.726c.148-.169.312-.317.467-.477a37.1,37.1,0,0,0,3.324,5.511,11.331,11.331,0,0,0,4.233,12.325,10.347,10.347,0,0,1,.352-6.273c.076-.208.178-.407.261-.611a37.252,37.252,0,0,0,5.081,3.955,12.615,12.615,0,0,0,.909,3.543,13.3,13.3,0,0,0,2.962,3.983A12.461,12.461,0,0,0,476,388.784a10.761,10.761,0,0,1-1.923-6.64,37.109,37.109,0,0,0,6.2,1.872,10.656,10.656,0,0,0,2.113,2.909,12.014,12.014,0,0,0,9.3,3.326,11.016,11.016,0,0,1-3.967-4.858c-.086-.213-.144-.426-.217-.641.076,0,.151.014.229.014a37.7,37.7,0,0,0,6.122-.544,10.2,10.2,0,0,0,3.116,1.986,11.324,11.324,0,0,0,4.87.931,14.877,14.877,0,0,0,2.567-.292,15.5,15.5,0,0,0,2.437-.928,10.435,10.435,0,0,1-5.895-3.615,37.215,37.215,0,0,0,5.791-2.8,12.059,12.059,0,0,0,3.585.768,11.906,11.906,0,0,0,9.076-3.849,10.353,10.353,0,0,1-6.214-.926c-.2-.1-.389-.215-.581-.322a37.351,37.351,0,0,0,4.4-4.694,12.884,12.884,0,0,0,3.622-.572,13.129,13.129,0,0,0,4.226-2.588,11.951,11.951,0,0,0,2.859-4.286,10.682,10.682,0,0,1-6.791,1.3,37.115,37.115,0,0,0,2.428-5.986A11.015,11.015,0,0,0,526.464,356.5Z" transform="translate(7.286 9.982)" fill="#787878"/>
    <rect id="Rectangle_152" data-name="Rectangle 152" width="7.826" height="2.835" transform="translate(456.82 315.304) rotate(-59.886)" fill="#c81e00"/>
    <rect id="Rectangle_153" data-name="Rectangle 153" width="130.514" height="7.844" transform="translate(435.823 354.168)" fill="#505050"/>
    <rect id="Rectangle_154" data-name="Rectangle 154" width="28.907" height="12.494" transform="translate(486.47 310.779) rotate(-36.993)" fill="#005078"/>
    <path id="Path_130" data-name="Path 130" d="M491.83,302.709a3.5,3.5,0,0,1-.65,4.889l-1.151.88a3.492,3.492,0,0,1-4.886-.648l-7.369-9.622a3.5,3.5,0,0,1,.648-4.89l1.159-.882a3.489,3.489,0,0,1,4.882.648Z" transform="translate(31.37 0)" fill="#005078"/>
    <path id="Path_131" data-name="Path 131" d="M465.962,292.967A6.978,6.978,0,0,0,456.4,295.7l-19.66,36.1a6.974,6.974,0,0,0,2.581,9.339l18.9,11.152L500.24,312.4Zm-17.817,41.106a1.746,1.746,0,0,1-.632-2.393l14.325-24.419a1.741,1.741,0,0,1,2.363-.634l18.709,10.6-22.785,23.757Z" transform="translate(0.05 0.259)" fill="#005078"/>
    <rect id="Rectangle_155" data-name="Rectangle 155" width="24.84" height="9.353" transform="translate(535.252 343.2)" fill="#aaa"/>
    <path id="Path_132" data-name="Path 132" d="M543.026,345.06a51.964,51.964,0,0,0-102.537,0Z" transform="translate(3.549 7.493)" fill="#aaa"/>
    <path id="Path_133" data-name="Path 133" d="M445.592,335.075a45.028,45.028,0,0,1,84.565,0Z" transform="translate(7.431 10.504)" fill="#c8c8c8"/>
    <path id="Path_134" data-name="Path 134" d="M514.907,337.325H499.8V316.008h9.878l5.228,9.876Z" transform="translate(48.669 18.475)" fill="#505050"/>
    <path id="Path_135" data-name="Path 135" d="M508.17,323.292a2.848,2.848,0,1,1-2.847-2.849A2.848,2.848,0,0,1,508.17,323.292Z" transform="translate(50.702 21.849)" fill="#ffb400"/>
    <g id="Group_46" data-name="Group 46" transform="translate(495.305 291.722)" opacity="0.15">
      <path id="Path_136" data-name="Path 136" d="M473.275,355.187a11,11,0,0,1-3.668-4.257V354.9A12.336,12.336,0,0,0,473.275,355.187Z" transform="translate(-469.605 -246.681)" fill="#a0a0a0"/>
      <path id="Path_137" data-name="Path 137" d="M537.877,344.359l-5.227-9.876h-9.878V343.2h-4.36a52.055,52.055,0,0,0-36.477-32.656l6.946-5.233,1.93,2.52a3.492,3.492,0,0,0,4.886.648l1.151-.88a3.5,3.5,0,0,0,.65-4.889l-7.367-9.624a3.489,3.489,0,0,0-4.882-.648l-1.159.882c-.065.051-.116.113-.176.166l-.035-.044L469.606,304.19v90.539a38.151,38.151,0,0,0,5.835-.532,10.2,10.2,0,0,0,3.116,1.986,11.322,11.322,0,0,0,4.87.931,14.883,14.883,0,0,0,2.567-.292,15.509,15.509,0,0,0,2.437-.928,10.435,10.435,0,0,1-5.895-3.615,37.22,37.22,0,0,0,5.791-2.8,12.059,12.059,0,0,0,3.585.768,11.906,11.906,0,0,0,9.076-3.849,10.354,10.354,0,0,1-6.214-.926c-.2-.1-.389-.215-.581-.322a37.351,37.351,0,0,0,4.4-4.694,12.888,12.888,0,0,0,3.622-.572,13.129,13.129,0,0,0,4.226-2.588,11.951,11.951,0,0,0,2.859-4.286,10.682,10.682,0,0,1-6.791,1.3,37.108,37.108,0,0,0,2.428-5.986,10.956,10.956,0,0,0,3.116-1.838,11.847,11.847,0,0,0,3.009-3.944c.085-.172.144-.354.217-.53h29.362v-7.844h-2.761v-9.805Zm-15.105,9.809H507.007a10.173,10.173,0,0,0,1.232-1.615h14.533Z" transform="translate(-469.606 -291.722)" fill="#a0a0a0"/>
    </g>
  </g>
</svg>
