<svg xmlns="http://www.w3.org/2000/svg" width="179.993" height="140.148" viewBox="0 0 179.993 140.148">
  <g id="Group_44" data-name="Group 44" transform="translate(-303.758 -298.19)">
    <path id="Path_121" data-name="Path 121" d="M429.691,361.41a19.738,19.738,0,0,1-7.771,1.607c-.214,0-.415-.04-.629-.04a48.464,48.464,0,0,0,.61-7.285c0-.673-.072-1.328-.1-1.991a17.211,17.211,0,0,0,5.79-4.642c4.632-5.457,5.839-14.907,1.744-22.644a17.426,17.426,0,0,1-9.53,13.293c-.189.1-.387.161-.575.256a48.111,48.111,0,0,0-3.859-8.454,17.666,17.666,0,0,0,2.953-6.81c1.511-6.966-1.749-15.883-8.959-20.827a17.483,17.483,0,0,1-2.289,16.193c-.121.177-.266.319-.389.491a48.877,48.877,0,0,0-7.336-5.694,17.292,17.292,0,0,0-.54-7.4c-1.875-6.891-8.962-13.272-17.653-14.274a17.428,17.428,0,0,1,5.533,15.382c-.026.214-.084.41-.114.62a48.226,48.226,0,0,0-9.15-1.626,18.544,18.544,0,0,0-3.922-6.321,20.007,20.007,0,0,0-9.861-5.322,19.215,19.215,0,0,0-6.151-.449,19.46,19.46,0,0,0-6.234,1.36,18.663,18.663,0,0,1,4.383,1.737,17.3,17.3,0,0,1,3.421,2.674,19.226,19.226,0,0,1,4.222,6.607c.077.2.112.4.182.6a48.075,48.075,0,0,0-8.88,2.811,17.044,17.044,0,0,0-6.374-3.726,19.65,19.65,0,0,0-11.218-.133,19.174,19.174,0,0,0-5.641,2.459,19.7,19.7,0,0,0-4.879,4.087,18.6,18.6,0,0,1,4.683-.487,17.353,17.353,0,0,1,4.271.778,19.145,19.145,0,0,1,6.8,3.88c.158.142.286.305.44.445a48.857,48.857,0,0,0-6.547,6.621,17.112,17.112,0,0,0-7.38-.352,19.7,19.7,0,0,0-10,5.089,19.231,19.231,0,0,0-3.861,4.809,19.55,19.55,0,0,0-2.415,5.9,18.677,18.677,0,0,1,3.913-2.625,17.784,17.784,0,0,1,4.143-1.3,19.242,19.242,0,0,1,7.837.273c.207.051.391.137.6.191a47.9,47.9,0,0,0-2.727,8.908,16.908,16.908,0,0,0-6.675,3.132,17.687,17.687,0,0,0-3.794,3.957,25.271,25.271,0,0,0-1.572,2.457,23.9,23.9,0,0,0-1.12,2.729,19.161,19.161,0,0,0-1.2,6.036,19.683,19.683,0,0,0,.6,6.346,16.335,16.335,0,0,1,5.321-7.206,18.74,18.74,0,0,1,7.073-3.388c.212-.054.417-.063.627-.109a48.161,48.161,0,0,0,1.721,9.129,18.738,18.738,0,0,0-1.656,1.567,18.215,18.215,0,0,0-2.809,4.327,16.207,16.207,0,0,0-1.544,5.282,18.654,18.654,0,0,0,.03,5.857,21.593,21.593,0,0,0,5.245,11.228,16.51,16.51,0,0,1,1.358-8.85,18.679,18.679,0,0,1,4.69-6.3c.163-.147.338-.249.5-.389a48.209,48.209,0,0,0,5.773,7.282,18.081,18.081,0,0,0-.736,2.157,18.531,18.531,0,0,0-.484,5.135,16.564,16.564,0,0,0,1.078,5.387,18.6,18.6,0,0,0,2.739,5.175,21.537,21.537,0,0,0,9.87,7.527,16.405,16.405,0,0,1-2.913-8.479,18.689,18.689,0,0,1,1.232-7.755c.075-.2.182-.373.263-.573a47.958,47.958,0,0,0,8.491,3.768,17.8,17.8,0,0,0,.347,2.252,18.375,18.375,0,0,0,1.968,4.77,16.2,16.2,0,0,0,3.47,4.267,19.033,19.033,0,0,0,4.83,3.307,22.059,22.059,0,0,0,12.2,2.089,17.445,17.445,0,0,1-9.018-13.633c-.028-.214-.012-.419-.035-.631.5.016.98.075,1.481.075a48.484,48.484,0,0,0,7.788-.685,16.557,16.557,0,0,0,5.305,5.17,19.823,19.823,0,0,0,10.895,2.886,26.441,26.441,0,0,0,6.081-1.043,25.321,25.321,0,0,0,5.713-2.823,17.4,17.4,0,0,1-8.624-2.4,19.542,19.542,0,0,1-5.727-5.468c-.123-.177-.2-.359-.321-.538a48.073,48.073,0,0,0,7.918-4.853,16.508,16.508,0,0,0,7.1,2.1,19.783,19.783,0,0,0,10.967-2.5,25.23,25.23,0,0,0,4.9-3.733,24.4,24.4,0,0,0,3.752-5.149,17.4,17.4,0,0,1-16.353-.324c-.189-.1-.347-.228-.536-.328a48.374,48.374,0,0,0,4.77-7.974,16.48,16.48,0,0,0,7.262-1.435,19.9,19.9,0,0,0,8.566-7.329,28.278,28.278,0,0,0,2.6-5.594,29.258,29.258,0,0,0,.934-6.29A17.883,17.883,0,0,1,429.691,361.41Zm-55.483,15.1a20.747,20.747,0,1,1,20.748-20.746A20.747,20.747,0,0,1,374.207,376.513Z" transform="translate(10.741 5)" fill="#505050"/>
    <path id="Path_122" data-name="Path 122" d="M303.758,357.808h88.293c25.939,0,38.252-17.49,38.252-17.49h53.448V370.71H303.758Z" transform="translate(0 67.628)" fill="#005078"/>
    <g id="Group_43" data-name="Group 43" transform="translate(384.948 298.19)" opacity="0.2">
      <path id="Path_123" data-name="Path 123" d="M345.567,350.866a17.034,17.034,0,0,1-6.947-7.01v6.7A22.206,22.206,0,0,0,345.567,350.866Z" transform="translate(-338.62 -225.86)" fill="#505050"/>
      <path id="Path_124" data-name="Path 124" d="M394.1,361.41a19.738,19.738,0,0,1-7.771,1.607c-.214,0-.415-.04-.629-.04a48.464,48.464,0,0,0,.61-7.285c0-.673-.072-1.328-.1-1.991A17.211,17.211,0,0,0,392,349.06c4.632-5.457,5.839-14.907,1.744-22.644a17.426,17.426,0,0,1-9.53,13.293c-.189.1-.387.161-.575.256a48.111,48.111,0,0,0-3.859-8.454,17.666,17.666,0,0,0,2.953-6.81c1.511-6.966-1.749-15.883-8.959-20.827a17.483,17.483,0,0,1-2.289,16.193c-.121.177-.266.319-.389.491a48.877,48.877,0,0,0-7.336-5.694,17.292,17.292,0,0,0-.54-7.4c-1.875-6.891-8.962-13.272-17.653-14.274a17.428,17.428,0,0,1,5.533,15.382c-.026.214-.084.41-.114.62a48.226,48.226,0,0,0-9.15-1.626,18.486,18.486,0,0,0-3.219-5.489v32.942a20.747,20.747,0,1,1,0,41.494V403.98a49.7,49.7,0,0,0,7.164-.654,16.556,16.556,0,0,0,5.305,5.17,19.824,19.824,0,0,0,10.895,2.886,26.443,26.443,0,0,0,6.081-1.043,25.318,25.318,0,0,0,5.713-2.823,17.4,17.4,0,0,1-8.624-2.4,19.543,19.543,0,0,1-5.727-5.468c-.123-.177-.2-.359-.321-.538a48.076,48.076,0,0,0,7.918-4.853,16.508,16.508,0,0,0,7.1,2.1,19.782,19.782,0,0,0,10.967-2.5,25.226,25.226,0,0,0,4.9-3.733,24.4,24.4,0,0,0,3.752-5.149,17.4,17.4,0,0,1-16.354-.324c-.189-.1-.347-.228-.536-.328a48.376,48.376,0,0,0,4.77-7.974,16.481,16.481,0,0,0,7.261-1.435,19.9,19.9,0,0,0,8.566-7.329,28.274,28.274,0,0,0,2.6-5.594,29.254,29.254,0,0,0,.934-6.29A17.884,17.884,0,0,1,394.1,361.41Z" transform="translate(-338.62 -293.19)" fill="#505050"/>
    </g>
  </g>
</svg>
